{"title":"Tere Bin Laden Dead or Alive 2016 TS Hindi Movies xviD-TvMovize.","uid":13910787,"size":731146334,"categoryP":"video","categoryS":"movies","magnet":"?xt=urn:btih:898dd59503d516132d4f314c3a70e6d8202f001d&amp;dn=Tere+Bin+Laden+Dead+or+Alive+2016+TS+Hindi+Movies+xviD-TvMovize.&amp;tr=udp%3A%2F%2Ftracker.leechers-paradise.org%3A6969&amp;tr=udp%3A%2F%2Fzer0day.ch%3A1337&amp;tr=udp%3A%2F%2Fopen.demonii.com%3A1337&amp;tr=udp%3A%2F%2Ftracker.coppersurfer.tk%3A6969&amp;tr=udp%3A%2F%2Fexodus.desync.com%3A6969","seeders":0,"leechers":1,"uploader":"TvMovize","files":1,"time":1458299635,"description":"Tere Bin Laden Dead or Alive 2016 TS Hindi Movies xviD-TvMovize.mp4\r\n\r\n++ ScreenShots ++\r\n \nhttp://www.image2be.com/movie/TereBinLadenDeadorAlive/1.html  \nhttp://www.image2be.com/movie/TereBinLadenDeadorAlive/2.html  \nhttp://www.image2be.com/movie/TereBinLadenDeadorAlive/3.html  \nhttp://www.image2be.com/movie/TereBinLadenDeadorAlive/4.html  \nhttp://www.image2be.com/movie/TereBinLadenDeadorAlive/5.html \r\n\r\n++ Info ++\r\n\r\nFormat : MPEG-4 \r\nFormat profile : Base Media / Version 2 \r\nCodec ID : mp42 (isom/iso2/avc1/mp41) \r\nFile size : 697 MiB \r\nDuration : 1h 37mn \r\nOverall bit rate mode : Variable \r\nOverall bit rate : 1 003 Kbps \r\nEncoded date : UTC 2016-02-27 08:54:42 \r\nTagged date : UTC 2016-02-27 08:54:42 \r\nWriting application : HandBrake 0.10.5 2016021100 \r\n\r\nVideo \r\nID : 1 \r\nFormat : AVC \r\nFormat/Info : Advanced Video Codec \r\nFormat profile :    \r\nFormat settings, CABAC : Yes \r\nFormat settings, ReFrames : 4 frames \r\nCodec ID : avc1 \r\nCodec ID/Info : Advanced Video Coding \r\nDuration : 1h 37mn \r\nBit rate : 915 Kbps \r\nWidth : 640 pixels \r\nHeight : 272 pixels \r\nDisplay aspect ratio : 2.35:1 \r\nFrame rate mode : Variable \r\nFrame rate : 23.976 fps \r\nMinimum frame rate : 23.974 fps \r\nMaximum frame rate : 23.981 fps \r\nColor space : YUV \r\nChroma subsampling : 4:2:0 \r\nBit depth : 8 bits \r\nScan type : Progressive \r\nBits/(Pixel*Frame) : 0.219 \r\nStream size : 654 MiB (94%) \r\nWriting library : x264 core 142 r2491 24e4fed \r\nEncoding settings : cabac=1 / ref=3 / deblock=1:0:0 / analyse=0x3:0x113 / me=hex / subme=7 / psy=1 / psy_rd=1.00:0.00 / mixed_ref=1 / me_range=16 / chroma_me=1 / trellis=1 / 8x8dct=1 / cqm=0 / deadzone=21,11 / fast_pskip=1 / chroma_qp_offset=-2 / threads=12 / lookahead_threads=2 / sliced_threads=0 / nr=0 / decimate=1 / interlaced=0 / bluray_compat=0 / constrained_intra=0 / bframes=3 / b_pyramid=2 / b_adapt=1 / b_bias=0 / direct=1 / weightb=1 / open_gop=0 / weightp=2 / keyint=240 / keyint_min=24 / scenecut=40 / intra_refresh=0 / rc_lookahead=40 / rc=abr / mbtree=1 / bitrate=915 / ratetol=1.0 / qcomp=0.60 / qpmin=0 / qpmax=69 / qpstep=4 / vbv_maxrate=17500 / vbv_bufsize=17500 / nal_hrd=none / filler=0 / ip_ratio=1.40 / aq=1:1.00 \r\nEncoded date : UTC 2016-02-27 08:54:42 \r\nTagged date : UTC 2016-02-27 08:54:42 \r\nColor range : Limited \r\nColor primaries : BT.601 NTSC \r\nTransfer characteristics : BT.709 \r\nMatrix coefficients : BT.601 \r\n\r\nAudio \r\nID : 2 \r\nFormat : AAC \r\nFormat/Info : Advanced Audio Codec \r\nFormat profile : LC \r\nCodec ID : 40 \r\nDuration : 1h 37mn \r\nBit rate mode : Variable \r\nBit rate : 55.7 Kbps \r\nChannel(s) : 2 channels \r\nChannel(s)_Original : 1 channel \r\nChannel positions : Front: C \r\nSampling rate : 48.0 KHz \r\nFrame rate : 46.875 fps (1024 spf) \r\nCompression mode : Lossy \r\nStream size : 38.7 MiB (6%) \r\nTitle : Mono / Mono \r\nDefault : Yes \r\nAlternate group : 1 \r\nEncoded date : UTC 2016-02-27 08:54:42 \r\nTagged date : UTC 2016-02-27 08:54:42","torrent":{"xt":"urn:btih:898dd59503d516132d4f314c3a70e6d8202f001d","amp;dn":"Tere+Bin+Laden+Dead+or+Alive+2016+TS+Hindi+Movies+xviD-TvMovize.","amp;tr":["udp%3A%2F%2Ftracker.leechers-paradise.org%3A6969","udp%3A%2F%2Fzer0day.ch%3A1337","udp%3A%2F%2Fopen.demonii.com%3A1337","udp%3A%2F%2Ftracker.coppersurfer.tk%3A6969","udp%3A%2F%2Fexodus.desync.com%3A6969"],"infoHash":"898dd59503d516132d4f314c3a70e6d8202f001d","infoHashBuffer":{"type":"Buffer","data":[137,141,213,149,3,213,22,19,45,79,49,76,58,112,230,216,32,47,0,29]},"announce":[],"urlList":[]}}